<svg xmlns="http://www.w3.org/2000/svg" width="223" height="62" viewBox="0 0 223 62"><g><g><g><path fill="#fff" d="M141.013 24.71c-.142 2.75-.209 5.508-.445 8.25-.28 3.25-.98 6.416-2.547 9.324-.894 1.657-2.034 3.108-3.734 4.022-.875.47-1.795.701-2.795.43-.865-.236-1.511-1.186-1.51-2.01.02-12.993.016-25.986.005-38.978 0-.4.105-.536.51-.593 1.526-.219 3.042-.279 4.527.208 1.984.65 3.251 2.075 4.107 3.913.826 1.773 1.214 3.664 1.454 5.589.41 3.268.426 6.554.428 9.844zM117.12-.174c.054.143.072.206.101.264.16.305.312.615.486.91 1.262 2.158 2.788 4.065 5.021 5.31.106.06.172.278.172.423.01 4.218.008 8.434.006 12.651 0 .115-.012.23-.017.321-2.383.668-3.985 2.274-5.4 4.178.076.008.103.018.127.012.103-.022.206-.05.309-.074 1.648-.374 3.212-.207 4.666.705.22.139.325.29.324.572a7253.12 7253.12 0 0 0 0 19.691c0 .26-.101.405-.287.56-.89.733-1.79 1.456-2.646 2.23-.682.617-1.304 1.302-1.988 1.992.095 0 .144.004.192 0 1.251-.144 2.5-.33 3.754-.424 1.626-.12 3.258-.25 4.885-.228 2.234.03 4.454-.01 6.651-.453 3.571-.72 6.686-2.28 9.142-5.02 2.092-2.333 3.325-5.107 4.099-8.112.739-2.87.931-5.802 1.007-8.744.09-3.526.092-7.051-.374-10.559-.303-2.279-.772-4.514-1.676-6.641-1.288-3.035-3.368-5.267-6.521-6.405-1.906-.688-3.89-.915-5.9-.965-2.77-.067-5.543-.09-8.313-.198-1.99-.077-3.966-.325-5.828-1.115-.643-.273-1.279-.565-1.992-.881z"></path></g><g><path fill="#fff" d="M214.78 4.589c2.189-.861 4.564-1.037 6.96-1.08-2.292 1.301-3.72 3.403-5.135 5.495-.934 1.381-1.747 2.844-2.613 4.27l-.222.365c-.105-.93-.176-1.808-.308-2.678-.291-1.918-.698-3.807-1.712-5.5-.414-.693-.934-1.29-1.688-1.637-.804-.37-1.59-.351-2.35.13-.806.51-1.385 1.23-1.884 2.02-1.173 1.86-1.865 3.915-2.396 6.029-.772 3.07-1.146 6.198-1.296 9.355-.19 3.978-.101 7.952.349 11.911.377 3.314 1.005 6.574 2.415 9.631.598 1.296 1.325 2.512 2.42 3.46.258.225.548.424.85.583.692.366 1.185.321 1.728-.239a6.785 6.785 0 0 0 1.016-1.363c.856-1.511 1.324-3.172 1.733-4.846.73-2.988 1.113-6.017.978-9.099-.055-1.274-.219-2.534-.702-3.73-.005-.013-.007-.026-.013-.039-.432-.987-.997-1.875-2.206-1.91-1.303-.038-2.335.525-2.976 1.697-.527.963-.75 2.018-.786 3.095-.037 1.123.032 2.248.058 3.374.002.152.02.305-.048.489-.085-.124-.177-.244-.255-.372-2.174-3.62-2.265-7.388-.783-11.26.093-.243.099-.401-.069-.63-.835-1.137-1.097-2.47-1.28-3.917.17.139.279.225.386.315 2.252 1.887 4.85 3.01 7.74 3.465 1.474.232 2.96.337 4.426-.027 2.604-.643 4.109-2.381 4.795-4.907.038-.139.067-.28.108-.452.033.047.063.071.065.097.18 2.536.08 5.038-.978 7.406-.223.503-.566.953-.836 1.438-.095.172-.194.374-.194.564.01 4.003-.334 7.968-1.282 11.866-.691 2.836-1.676 5.554-3.413 7.943-1.54 2.12-3.514 3.633-6.115 4.21-2.5.553-4.696-.162-6.657-1.712-1.963-1.551-3.355-3.562-4.503-5.75-1.923-3.662-3.119-7.563-3.666-11.649-.224-1.676-.257-3.378-.35-5.07-.016-.302-.108-.438-.382-.543-1.05-.406-2.092-.836-3.136-1.257-.106-.044-.21-.092-.384-.168.618-.288 1.187-.526 1.728-.816.7-.375 1.38-.787 2.06-1.197.303-.182.417-.47.466-.828.689-4.96 1.987-9.728 4.537-14.087 1.224-2.092 2.72-3.957 4.782-5.297 1.521-.988 3.17-1.609 5.018-1.495 1.607.1 2.91.881 4.003 1.996.71.724 1.32 1.546 1.998 2.35z"></path></g><g><path fill="#fff" d="M10.5 53.513a16.298 16.298 0 0 0 3.73 2.162c3.225 1.35 6.58 1.787 10.05 1.425 3.218-.335 6.25-1.297 9.137-2.72 4.039-1.993 8.292-3.367 12.646-4.457 4.972-1.244 10.015-2.09 15.108-2.651 3.998-.44 8.006-.694 12.028-.741 4.317-.05 8.622.123 12.895.759 6.42.955 12.485 2.913 17.935 6.532 2.288 1.52 4.37 3.278 6.036 5.487.206.273.387.563.59.861 1.873-1.69 3.97-3.028 6.176-4.198 3.886-2.06 8.003-3.51 12.272-4.54 5.072-1.223 10.222-1.842 15.438-1.957 4.331-.096 8.644.133 12.95.573 6.856.7 13.605 2.027 20.35 3.397a661.486 661.486 0 0 0 16.096 3.037c3.033.539 6.104.805 9.19.734 2.99-.068 5.925-.447 8.667-1.75 2.042-.97 3.678-2.397 4.837-4.35.027-.045.053-.092.083-.135.015-.02.04-.033.1-.082-.257 1.158-.772 2.145-1.467 3.04-1.552 2.002-3.646 3.2-6.004 3.992-2.013.676-4.096.98-6.206 1.124-.152.01-.334.026-.444.113-1.478 1.184-3.21 1.787-5.025 2.18-2.883.623-5.794.6-8.712.29-5.082-.54-9.93-2.052-14.776-3.568-4.753-1.488-9.488-3.036-14.267-4.438-4.257-1.25-8.621-2.01-13.05-2.357a61.52 61.52 0 0 0-12.391.29c-4.397.545-8.707 1.45-12.854 3.04-3.025 1.16-5.896 2.614-8.37 4.736-.849.729-1.57 1.607-2.35 2.417-.045.046-.088.094-.124.132-2.338-3.834-5.64-6.589-9.55-8.673-3.477-1.854-7.216-2.9-11.082-3.538-3.688-.61-7.407-.836-11.14-.794-3.943.044-7.868.36-11.772.928-6 .872-11.892 2.198-17.55 4.402-2.34.911-4.592 2.053-6.88 3.1-2.98 1.367-6.058 2.412-9.324 2.816-2.456.304-4.89.269-7.276-.534-.499-.167-1.075-.108-1.615-.145-2.924-.2-5.797-.655-8.54-1.736-1.807-.712-3.476-1.65-4.807-3.097-.293-.32-.54-.681-.81-1.024l.072-.082z"></path></g><g><path fill="#fff" d="M7.347 42.464c.69-.046 1.468-.015 2.209-.166 1.465-.297 2.52-1.216 3.096-2.564 1.124-2.628 1.452-5.366.718-8.157-.416-1.58-1.254-2.897-2.951-3.358-1.148-.312-2.32-.204-3.45.162-2.088.68-3.373 2.183-4.011 4.205-1.472 4.667-.492 8.891 2.495 12.693.942 1.2 2.074 2.199 3.435 2.914 2.196 1.155 4.477 1.197 6.791.449 3.362-1.087 6.184-2.93 8.01-6.036 2.333-3.964 2.553-7.993.112-12.002-2.731-4.487-6.743-7.356-11.71-8.874-2.771-.847-5.487-.376-8.068.902l-.3.151c.852-1.803 3.251-3.564 5.54-4.114-.382-.414-.781-.847-1.183-1.278-1.286-1.38-2.369-2.893-3.036-4.67C3.654 9.017 4.87 4.845 8.03 2.418 10.014.895 12.211.042 14.755.253c2.309.191 4.38.902 5.974 2.685.075.084.306.105.43.06 1.64-.582 3.33-.896 5.068-.889.698.003 1.396.109 2.067.166-1.345 1.678-2.706 3.299-3.98 4.986a27.338 27.338 0 0 0-3.196 5.47c-.027-.408-.05-.816-.082-1.225-.15-1.835-.484-3.632-1.37-5.269-.944-1.744-2.281-3.075-4.217-3.717-2.056-.682-5.462 1.01-5.424 4.081.026 2.1.922 3.8 2.253 5.33 1.167 1.342 2.678 2.235 4.139 3.201 2.423 1.602 4.82 3.241 7.218 4.877.22.15.398.15.623.059 2.125-.864 3.27-2.48 3.627-4.705.029-.18.054-.361.081-.543l.105-.012c.162.84.35 1.675.48 2.52.165 1.079.19 2.163-.014 3.245-.171.906-.509 1.726-1.2 2.402.063.087.116.174.181.251 2.248 2.659 3.457 5.719 3.49 9.208.026 2.694-.734 5.21-1.95 7.586-2.07 4.044-5.065 7.2-9.147 9.264-2.08 1.052-4.28 1.612-6.633 1.51-2.89-.125-5.43-1.162-7.642-2.982C2.55 45.27.687 42.004.113 38.043c-.863-5.953 3.32-11.792 9.256-12.842 3.364-.595 6.346.237 8.47 3.052 1.8 2.385 2.345 5.117 1.489 8.015-.596 2.016-2 3.333-4.002 3.987a1.242 1.242 0 0 0-.671.494c-1.433 1.988-3.796 2.739-6.343 2.029-.354-.1-.7-.227-.965-.314z"></path></g><g><path fill="#fff" d="M27.614 9.813h11.34c-.551.76-.427 1.589-.188 2.359a35.136 35.136 0 0 0 1.297 3.492c2.389 5.544 4.805 11.077 7.213 16.614.041.094.089.186.181.377.019-.204.037-.311.037-.419.002-4.68.004-9.362 0-14.043-.002-1.825-.18-3.625-.814-5.354-.421-1.147-1.006-2.19-2.033-3.006h8.615c-.394.26-.934.53-1.365.92-.999.906-1.448 2.136-1.79 3.4a17.091 17.091 0 0 0-.569 4.482c.004 5.94-.009 11.882.013 17.822.003.856.082 1.729.263 2.563.426 1.953 1.402 3.504 3.535 4.18H42.572c1.139-.862 1.136-2.036.995-3.246a2.067 2.067 0 0 0-.152-.573c-2.494-5.759-4.991-11.516-7.49-17.273a.353.353 0 0 0-.18-.195v.447c0 5.397.036 10.794-.016 16.19-.024 2.505 1.425 3.87 3.301 4.503.112.038.226.07.443.136H29.212c1.822-.643 2.662-2.072 3.236-3.722.068-.195.095-.413.1-.62.012-.65.003-1.3.004-1.95.007-5.105.017-10.21.021-15.316.001-1.525-.012-3.049-.022-4.574-.008-1.336-.506-2.506-1.25-3.584-.866-1.257-1.958-2.296-3.168-3.217-.144-.111-.29-.22-.52-.393z"></path></g><g><path fill="#fff" d="M100.528 11.753c.432.072.846.115 1.248.212 3.036.728 5.02 2.96 5.452 6.056.317 2.265.457 4.532.223 6.81-.18 1.752-.536 3.46-1.528 4.961-1.305 1.979-3.248 2.411-5.282 2.015-.036-.007-.068-.036-.113-.062zm.267 21.69c1.32.27 2.648.361 3.994.24 3.535-.322 6.118-2.019 7.609-5.264 1.813-3.949 1.81-7.973.4-12.031-.832-2.39-2.374-4.168-4.66-5.284-2.094-1.023-4.343-1.396-6.636-1.427-2.691-.037-5.385.06-8.077.094-.709.01-1.418.002-2.126.002.048.135.11.175.173.214 1.86 1.15 2.841 2.789 2.834 5.004-.013 3.714-.003 7.427-.003 11.14 0 5.014-.008 10.027.004 15.04.004 1.815-.259 3.495-1.99 4.57 4.436-.423 8.176 1.056 11.434 3.952a1.902 1.902 0 0 0-.193-.33c-1.863-2.69-2.96-5.65-3.031-8.937-.05-2.253-.011-4.51-.01-6.763 0-.077.017-.154.028-.24.093.007.173.004.25.02z"></path></g><g><path fill="#fff" d="M66.596 29.708c0 .413.017.757-.003 1.099-.142 2.44-.439 4.856-1.275 7.172-.353.977-.805 1.907-1.569 2.642a3.86 3.86 0 0 1-.588.47c-.825.528-1.47.46-2.184-.217-.944-.896-1.441-2.054-1.857-3.246-.795-2.279-1.17-4.643-1.378-7.04a43.081 43.081 0 0 1 .005-7.662c.253-2.78.692-5.52 1.822-8.103.358-.817.793-1.59 1.479-2.189.08-.07.163-.137.25-.195.765-.506 1.289-.427 1.854.301.703.907 1.02 1.983 1.192 3.083.682 4.386.582 8.739-.7 13.022-.5 1.673-1.015 2.64-2.47 4.716 2.538-.315 4.122-1.823 5.422-3.853zm-15.458-3.326zm0 0c.023 3.151.45 6.113 1.517 8.963.875 2.336 2.076 4.466 4.006 6.115 2.687 2.296 6.002 2.351 8.76.146 1.447-1.156 2.498-2.628 3.314-4.27 1.885-3.793 2.514-7.838 2.349-12.032-.115-2.91-.659-5.731-1.792-8.424-.857-2.037-1.995-3.888-3.706-5.335-2.761-2.333-6.152-2.327-8.916.004-1.446 1.22-2.486 2.746-3.296 4.433-1.595 3.325-2.198 6.864-2.236 10.4z"></path></g><g><path fill="#fff" d="M88.175 29.771zm0 0c-.061 2.794-.334 5.54-1.269 8.18-.32.905-.727 1.772-1.395 2.476-.287.303-.636.559-.988.788-.583.379-1.157.277-1.7-.118-.606-.441-1.01-1.046-1.355-1.693-.862-1.62-1.323-3.373-1.654-5.16-.8-4.323-.854-8.669-.306-13.021.269-2.131.68-4.242 1.57-6.215.324-.717.757-1.397 1.224-2.032.238-.322.641-.543 1.005-.747.42-.236.812-.108 1.156.223.564.543.867 1.23 1.1 1.953.487 1.514.645 3.08.713 4.66.125 2.898-.004 5.775-.72 8.601-.536 2.112-1.325 4.104-2.756 5.795.664.157 2.042-.36 3.105-1.16.92-.692 1.627-1.576 2.27-2.53zm4.486-4.47c-.135-3.154-.746-6.202-2.084-9.08-.883-1.897-2.026-3.606-3.702-4.905-1.16-.898-2.456-1.464-3.944-1.512-2.056-.064-3.727.802-5.166 2.183-1.834 1.76-2.962 3.954-3.759 6.33-1.072 3.194-1.424 6.483-1.23 9.839.168 2.908.753 5.722 1.949 8.39.888 1.982 2.05 3.774 3.786 5.134 2.619 2.05 5.725 2.059 8.358.027 1.48-1.142 2.545-2.617 3.388-4.262 1.756-3.426 2.394-7.103 2.406-10.912 0-.411.015-.822-.002-1.232z"></path></g><g><path fill="#fff" d="M164.802 29.197c0 .41.018.744-.001 1.076-.145 2.44-.408 4.865-1.284 7.167-.311.818-.808 1.568-1.251 2.331-.129.222-.348.4-.55.569-1.014.84-1.798.8-2.711-.145-.743-.77-1.176-1.726-1.547-2.708-.79-2.098-1.18-4.286-1.425-6.502a42.12 42.12 0 0 1-.155-7.583c.22-3.17.644-6.303 1.974-9.235.243-.538.595-1.029.917-1.529.113-.175.275-.323.431-.465.918-.826 1.652-.735 2.33.298.647.987.933 2.109 1.091 3.252.56 4.042.484 8.06-.598 12.021-.517 1.895-1.285 3.675-2.58 5.187-.015.015-.008.048-.018.122 2.479-.304 4.077-1.81 5.377-3.856zm4.51-2.264c.053-3.218-.283-6.061-1.174-8.824-.785-2.435-1.901-4.691-3.743-6.518-3.109-3.084-7.043-3.062-10.147.031-1.219 1.215-2.118 2.643-2.828 4.196-1.254 2.746-1.86 5.647-2.023 8.65-.19 3.477.208 6.877 1.388 10.164.842 2.347 2.025 4.49 3.913 6.18 2.646 2.366 5.949 2.539 8.722.451 1.226-.922 2.18-2.09 2.953-3.402 2.046-3.471 2.813-7.28 2.94-10.928z"></path></g><g><path fill="#fff" d="M187.147 20.299c-.6-1.411-1.183-2.874-1.84-4.303-.555-1.205-1.207-2.363-2.156-3.319-.15-.15-.31-.29-.484-.411-.741-.523-1.433-.47-2.081.162-.872.851-1.306 1.952-1.688 3.07-.763 2.233-1.135 4.545-1.359 6.883a43.845 43.845 0 0 0 .005 8.415c.237 2.443.528 4.881 1.446 7.181a7.7 7.7 0 0 0 1.12 1.952c1.019 1.264 2.755 1.383 4.01.35.881-.726 1.37-1.708 1.721-2.764.624-1.874.743-3.767.053-5.648a4.004 4.004 0 0 0-.765-1.235c-.498-.562-1.22-.537-1.756-.002-.564.561-.748 1.295-.895 2.042-.03.156-.053.313-.08.473-.99-.508-1.21-2.032-.678-4.682-1.438-.86-2.131-2.27-2.744-3.744 1.374 1.154 2.958 1.009 4.557.804 1.326-.17 2.652-.4 3.983-.455 2.15-.09 3.724.913 4.656 2.844.359.744.599 1.546.91 2.363-.74-.07-1.378-.164-2.017-.183-.953-.028-.953-.006-1.041.929-.257 2.725-.822 5.37-2.148 7.798-1.083 1.985-2.585 3.527-4.796 4.237-3.18 1.022-6.17.053-8.392-2.7-1.587-1.966-2.53-4.245-3.19-6.654-.904-3.303-1.075-6.655-.67-10.05.318-2.645.897-5.218 2.014-7.65.834-1.818 1.924-3.448 3.535-4.682 1.264-.968 2.694-1.533 4.279-1.657 2.101-.164 3.738.774 5.137 2.24.1.104.191.22.286.33l.297.354c1.188-1.678 2.897-2.329 4.881-2.598-1.707 3.372-3.472 6.655-4.11 10.31z"></path></g><g><path fill="#fff" d="M111.826 45.414c.106.865.19 1.732.323 2.593.24 1.55.632 3.058 1.355 4.463.54 1.051 1.227 1.978 2.327 2.616-1.882.551-3.16 1.847-4.421 3.207-.834-1.43-2.189-2.27-3.512-3.177 1.44-.66 2.003-1.979 2.504-3.324.744-1.999 1.095-4.087 1.352-6.194l.02-.195z"></path></g></g></g></svg>